<svg width="850" height="348" viewBox="0 0 850 348" fill="none" xmlns="http://www.w3.org/2000/svg">
<rect width="850" height="348" fill="white"/>
<path d="M584.684 174.594C582.113 182.437 578.512 198.218 584.684 198.594C586.905 198.437 591.733 197.606 593.276 195.535" stroke="black" stroke-width="2"/>
<path d="M602.075 227.395C596.354 231.62 581.944 237.537 570.075 227.395" stroke="black" stroke-width="2"/>
<circle r="4" transform="matrix(-1 0 0 1 623.676 156.994)" fill="black"/>
<circle r="4" transform="matrix(-1 0 0 1 550.876 156.994)" fill="black"/>
<path d="M741.276 333.4C700.292 81.2107 548.476 -193.4 476.076 310.2" stroke="black" stroke-width="2"/>
<path d="M474.876 310.533C467.776 256 434.776 172.5 396.276 166.5C357.776 160.5 323.276 180 297.276 311.8" stroke="black" stroke-width="2"/>
<path d="M384.368 243.506C383.07 247.467 381.252 255.435 384.368 255.625C385.49 255.546 387.928 255.126 388.707 254.081" stroke="black" stroke-width="2"/>
<path d="M393.15 270.167C390.261 272.301 382.985 275.289 376.992 270.167" stroke="black" stroke-width="2"/>
<circle r="2.4" transform="matrix(-1 0 0 1 411.677 234.999)" fill="black"/>
<circle r="2.4" transform="matrix(-1 0 0 1 358.917 234.999)" fill="black"/>
<path d="M89.2764 309.478C90.9 213.515 118.501 30.8762 184.561 23.5795C250.622 16.2828 274.975 75.9832 295.676 311.8" stroke="black" stroke-width="2"/>
<path d="M195.11 155.553C197.325 162.144 200.427 175.407 195.11 175.723C193.197 175.591 189.038 174.892 187.709 173.152" stroke="black" stroke-width="2"/>
<path d="M202.869 195.894C199.173 199.445 189.864 204.417 182.196 195.894" stroke="black" stroke-width="2"/>
<ellipse rx="3.44554" ry="3.3617" transform="matrix(-1 0 0 1 224.231 140.762)" fill="black"/>
<ellipse rx="3.44554" ry="3.3617" transform="matrix(-1 0 0 1 161.523 140.762)" fill="black"/>
<path d="M810.729 143.021C799.119 153.341 793.265 151.964 790.56 156.183C781.245 176.642 779.974 182.246 758.109 215.868C742.589 239.735 725.471 254.026 725.471 254.026L714.648 214.034C736.684 189.941 730.872 197.203 752.535 170.092C766.055 153.171 770.638 149.055 770.18 143.312C767.985 138.207 765.606 133.11 770.735 118.313C777.829 104.366 773.742 113.936 779.451 96.5393C783.138 85.3068 787.88 91.5123 786.968 98.9882L786.215 105.893C786.742 118.488 791.139 109.165 792.735 104.645C795.156 95.988 804.33 79.4319 805.642 76.2561C809.997 69.5263 814.628 74.195 810.676 81.222C808.206 85.6139 801.879 101.249 800.847 106.289C801.112 109.968 802.734 107.152 803.941 105.468L806.547 99.8047C812.233 86.9309 810.895 91.6378 814.778 82.6382C820.45 69.4918 826.074 72.9674 822.271 82.9543C818.468 92.9412 817.391 92.9407 813.977 101.622C807.578 117.892 813.703 108.116 817.453 102.268C820.766 94.9017 820.203 96.3872 823.975 90.0326C827.851 81.1882 834.631 83.4761 828.823 93.7403C825.53 100.616 821.07 111.429 815.8 117.713C814.696 120.168 814.521 123.664 819.276 118.36C825.109 110.599 820.838 116.924 826.149 109.642C831.954 101.683 834.119 110.453 829.415 115.285C824.711 120.116 815.834 138.92 810.729 143.021Z" stroke="black" stroke-width="2"/>
<path d="M38.1764 154.035C47.8145 161.883 48.536 160.188 50.7764 163.5C58.4758 179.758 64.4811 183.589 79.9539 211.562C90.0848 229.878 94.0215 236.459 94.0215 236.459L99.5636 197.28C84.2764 177 89.2764 185.5 75.105 168.113C64.9414 155.643 68.7764 151 68.7764 149C69.7764 140 69.9206 142.871 67.3192 131.558C64.7764 120.5 67.0861 128.861 62.3803 114.924C59.3419 105.925 56.6383 111.455 57.3771 117.523L58.6874 122.422C58.2148 132.749 54.5794 125.348 53.2625 121.732C51.2703 114.776 43.6773 101.702 42.5938 99.172C38.9869 93.8898 35.1177 97.9438 38.389 103.49C40.4336 106.956 45.6587 119.421 46.5045 123.491C46.2737 126.512 44.9308 124.292 43.9303 122.977L41.776 118.477C37.0769 108.238 38.1781 112.019 34.9699 104.857C30.2835 94.3937 25.5913 97.5226 28.7303 105.497C31.8692 113.471 32.766 113.416 35.585 120.342C40.8685 133.322 35.7954 125.639 32.6892 121.047C29.9504 115.191 30.4153 116.378 27.2927 111.372C24.0895 104.336 18.4378 106.553 23.2462 114.652C25.9689 120.107 29.6529 128.724 34.023 133.594C34.9359 135.546 35.0719 138.397 31.1273 134.301C26.292 128.25 29.8308 133.206 25.4286 127.52C20.6175 121.307 18.791 128.59 22.6943 132.302C26.5976 136.013 33.9367 150.94 38.1764 154.035Z" stroke="black" stroke-width="2"/>
</svg>
